<?xml version="1.0" encoding="utf-8"?>
<!-- Generator: Adobe Illustrator 23.0.0, SVG Export Plug-In . SVG Version: 6.00 Build 0)  -->
<svg version="1.1" id="Layer_1" xmlns="http://www.w3.org/2000/svg" xmlns:xlink="http://www.w3.org/1999/xlink" x="0px" y="0px"
	 viewBox="0 0 1000 1000" style="enable-background:new 0 0 1000 1000;" xml:space="preserve">
<style type="text/css">
	.st0{fill:#D63031;}
</style>
<g>
	<g>
		<path class="st0" d="M866.74,476.16V346.57l-76.53-13.5c-6.75-24.83-16.59-48.39-29.17-70.35l44.61-63.72l-91.73-91.73
			l-63.71,44.61c-21.85-12.47-45.41-22.42-70.35-29.05l-13.5-76.64H436.77l-13.5,76.64c-24.95,6.75-48.51,16.58-70.35,29.17
			l-63.72-44.73l-91.63,91.73l44.61,63.72c-12.58,21.85-22.52,45.41-29.27,70.35l-76.53,13.5v129.59l76.63,13.61
			c6.75,24.82,16.59,48.38,29.17,70.35l-44.61,63.6l118.51-113.04c-15.88-29.58-24.88-63.39-24.88-99.31
			c0-116.18,94.17-210.35,210.35-210.35c116.17,0,210.36,94.17,210.36,210.35c0,116.18-94.19,210.35-210.36,210.35
			c-36.81,0-71.4-9.45-101.49-26.06L288.13,714.26l64.8-43.41c21.84,12.47,45.4,22.42,70.35,29.17l13.5,76.53h129.59l13.5-76.53
			c24.93-6.75,48.5-16.58,70.35-29.17l63.71,44.49l91.73-91.61l-44.61-63.72c12.47-21.85,22.3-45.41,29.05-70.23L866.74,476.16z"/>
		<path class="st0" d="M489.21,463.23c20.35,1.62,27.27,27.62,27.27,27.62l31.55,31.55c2.66,2.66,6.14,3.99,9.61,3.99
			c3.48,0,6.95-1.33,9.61-3.99l47.49-47.49c5.3-5.3,5.3-13.91,0-19.21l-31.57-31.57c0,0-26.37-6.98-27.65-27.65l-46.23-46.23
			l-20.04-2.82c0,0-30.43-32.18-74.26-32.18c-20.16,0-43.15,6.79-67.34,26.66c-3.64,2.99-1.49,8.88,3.2,8.88h0.85
			c17.92,0,49.17,7.26,88.05,46.13l2.83,20.03l4.18,4.18l-116.59,112.2L216.54,642.68l-71.03,68.35
			c-8.15,7.86-12.24,18.32-12.24,28.79c0,10.21,3.89,20.44,11.7,28.24c7.8,7.81,18.02,11.7,28.24,11.7
			c10.59,0,21.18-4.19,29.04-12.53l67.43-71.43l108-114.4L489.21,463.23z"/>
	</g>
	<g>
		<path class="st0" d="M209.96,915.01h-43.24l-8.25,19.96h-22.08l41.51-93.13h21.29l41.64,93.13h-22.62L209.96,915.01z
			 M203.17,898.65l-14.77-35.65l-14.77,35.65H203.17z"/>
		<path class="st0" d="M322.64,917.67v17.29h-72.11v-93.13h70.38v17.29h-48.96v20.22h43.24v16.76h-43.24v21.55H322.64z"/>
		<path class="st0" d="M479.22,841.84l-30.47,93.13H425.6l-20.49-63.06l-21.15,63.06h-23.02l-30.6-93.13h22.35l21.02,65.45
			l21.95-65.45h19.95l21.29,65.99l21.69-65.99H479.22z"/>
		<path class="st0" d="M484.27,888.4c0-27.67,21.55-48.16,50.95-48.16c29.27,0,50.95,20.35,50.95,48.16
			c0,27.8-21.69,48.16-50.95,48.16C505.82,936.56,484.27,916.07,484.27,888.4z M564.36,888.4c0-17.69-12.51-29.8-29.14-29.8
			s-29.14,12.11-29.14,29.8c0,17.69,12.51,29.8,29.14,29.8S564.36,906.1,564.36,888.4z"/>
		<path class="st0" d="M661.74,934.97l-17.96-25.94h-1.06h-18.76v25.94H602.4v-93.13h40.31c24.88,0,40.44,12.9,40.44,33.79
			c0,13.97-7.05,24.21-19.16,29.4l20.89,29.93H661.74z M641.51,859.4h-17.56v32.46h17.56c13.17,0,19.82-6.12,19.82-16.23
			C661.34,865.39,654.68,859.4,641.51,859.4z"/>
		<path class="st0" d="M734.1,898.38l-12.51,13.04v23.55h-21.42v-93.13h21.42v43.5l41.24-43.5h23.95l-38.58,41.51l40.84,51.62H763.9
			L734.1,898.38z"/>
		<path class="st0" d="M789.31,925.79l7.32-16.23c7.85,5.72,19.56,9.71,30.73,9.71c12.77,0,17.96-4.26,17.96-9.98
			c0-17.43-54.15-5.45-54.15-40.04c0-15.83,12.77-29,39.25-29c11.71,0,23.68,2.79,32.33,8.25l-6.65,16.36
			c-8.65-4.92-17.56-7.32-25.81-7.32c-12.77,0-17.69,4.79-17.69,10.64c0,17.16,54.15,5.32,54.15,39.51
			c0,15.57-12.9,28.87-39.51,28.87C812.46,936.56,797.56,932.17,789.31,925.79z"/>
	</g>
</g>
</svg>
